STARTFONT 2.1
FONT -daisy-daisy-medium-r-normal--10-110-75-75-m-50-ISO8859-1
SIZE 11 75 75
FONTBOUNDINGBOX 5 10 0 -2
STARTPROPERTIES 23
FONTNAME_REGISTRY ""
WEIGHT_NAME "medium"
SLANT "r"
SETWIDTH_NAME "normal"
ADD_STYLE_NAME ""
PIXEL_SIZE 10
POINT_SIZE 110
RESOLUTION_X 75
RESOLUTION_Y 75
SPACING "m"
AVERAGE_WIDTH 50
CHARSET_REGISTRY "ISO8859"
CHARSET_ENCODING "1"
COPYRIGHT "victoria lacroix"
WEIGHT 10
X_HEIGHT 6
QUAD_WIDTH 7
_ORIGINAL_FONT_NAME "yuki, lemon"
DEFAULT_CHAR 52
FONT_DESCENT 2
FONT_ASCENT 8
_GBDFED_INFO "Edited with gbdfed 1.6."
FAMILY_NAME "daisy"
ENDPROPERTIES
CHARS 394
STARTCHAR char32
ENCODING 32
SWIDTH 436 0
DWIDTH 5 0
BBX 0 0 0 0
BITMAP
ENDCHAR
STARTCHAR char33
ENCODING 33
SWIDTH 436 0
DWIDTH 5 0
BBX 1 6 2 0
BITMAP
80
80
80
80
00
80
ENDCHAR
STARTCHAR char34
ENCODING 34
SWIDTH 436 0
DWIDTH 5 0
BBX 3 3 1 4
BITMAP
A0
A0
A0
ENDCHAR
STARTCHAR char35
ENCODING 35
SWIDTH 436 0
DWIDTH 5 0
BBX 5 5 0 0
BITMAP
50
F8
50
F8
50
ENDCHAR
STARTCHAR char36
ENCODING 36
SWIDTH 436 0
DWIDTH 5 0
BBX 5 7 0 0
BITMAP
20
78
A0
70
28
F0
20
ENDCHAR
STARTCHAR char37
ENCODING 37
SWIDTH 436 0
DWIDTH 5 0
BBX 4 6 1 0
BITMAP
80
90
20
40
90
10
ENDCHAR
STARTCHAR char38
ENCODING 38
SWIDTH 436 0
DWIDTH 5 0
BBX 5 6 0 0
BITMAP
40
A0
40
A8
90
68
ENDCHAR
STARTCHAR char39
ENCODING 39
SWIDTH 436 0
DWIDTH 5 0
BBX 1 3 2 4
BITMAP
80
80
80
ENDCHAR
STARTCHAR char40
ENCODING 40
SWIDTH 436 0
DWIDTH 5 0
BBX 3 8 1 -1
BITMAP
20
40
80
80
80
80
40
20
ENDCHAR
STARTCHAR char41
ENCODING 41
SWIDTH 436 0
DWIDTH 5 0
BBX 3 8 2 -1
BITMAP
80
40
20
20
20
20
40
80
ENDCHAR
STARTCHAR char42
ENCODING 42
SWIDTH 436 0
DWIDTH 5 0
BBX 4 4 1 1
BITMAP
60
F0
60
90
ENDCHAR
STARTCHAR char43
ENCODING 43
SWIDTH 436 0
DWIDTH 5 0
BBX 5 5 0 0
BITMAP
20
20
F8
20
20
ENDCHAR
STARTCHAR char44
ENCODING 44
SWIDTH 436 0
DWIDTH 5 0
BBX 2 3 1 -1
BITMAP
40
40
80
ENDCHAR
STARTCHAR char45
ENCODING 45
SWIDTH 436 0
DWIDTH 5 0
BBX 4 1 1 2
BITMAP
F0
ENDCHAR
STARTCHAR char46
ENCODING 46
SWIDTH 436 0
DWIDTH 5 0
BBX 1 2 2 0
BITMAP
80
80
ENDCHAR
STARTCHAR char47
ENCODING 47
SWIDTH 436 0
DWIDTH 5 0
BBX 4 8 1 -1
BITMAP
10
10
20
20
40
40
80
80
ENDCHAR
STARTCHAR char48
ENCODING 48
SWIDTH 436 0
DWIDTH 5 0
BBX 4 6 1 0
BITMAP
60
90
B0
D0
90
60
ENDCHAR
STARTCHAR char49
ENCODING 49
SWIDTH 436 0
DWIDTH 5 0
BBX 3 6 1 0
BITMAP
40
C0
40
40
40
E0
ENDCHAR
STARTCHAR char50
ENCODING 50
SWIDTH 436 0
DWIDTH 5 0
BBX 4 6 1 0
BITMAP
E0
10
10
60
80
F0
ENDCHAR
STARTCHAR char51
ENCODING 51
SWIDTH 436 0
DWIDTH 5 0
BBX 4 6 1 0
BITMAP
E0
10
60
10
10
E0
ENDCHAR
STARTCHAR char52
ENCODING 52
SWIDTH 436 0
DWIDTH 5 0
BBX 4 6 1 0
BITMAP
90
90
90
70
10
10
ENDCHAR
STARTCHAR char53
ENCODING 53
SWIDTH 436 0
DWIDTH 5 0
BBX 4 6 1 0
BITMAP
F0
80
E0
10
10
E0
ENDCHAR
STARTCHAR char54
ENCODING 54
SWIDTH 436 0
DWIDTH 5 0
BBX 4 6 1 0
BITMAP
60
80
E0
90
90
60
ENDCHAR
STARTCHAR char55
ENCODING 55
SWIDTH 436 0
DWIDTH 5 0
BBX 4 6 1 0
BITMAP
F0
10
20
20
40
40
ENDCHAR
STARTCHAR char56
ENCODING 56
SWIDTH 436 0
DWIDTH 5 0
BBX 4 6 1 0
BITMAP
60
90
60
90
90
60
ENDCHAR
STARTCHAR char57
ENCODING 57
SWIDTH 436 0
DWIDTH 5 0
BBX 4 6 1 0
BITMAP
60
90
90
70
10
60
ENDCHAR
STARTCHAR char58
ENCODING 58
SWIDTH 436 0
DWIDTH 5 0
BBX 1 5 2 0
BITMAP
80
80
00
80
80
ENDCHAR
STARTCHAR char59
ENCODING 59
SWIDTH 436 0
DWIDTH 5 0
BBX 2 6 1 -1
BITMAP
40
40
00
40
40
80
ENDCHAR
STARTCHAR char60
ENCODING 60
SWIDTH 436 0
DWIDTH 5 0
BBX 3 5 1 0
BITMAP
20
40
80
40
20
ENDCHAR
STARTCHAR char61
ENCODING 61
SWIDTH 436 0
DWIDTH 5 0
BBX 4 3 1 1
BITMAP
F0
00
F0
ENDCHAR
STARTCHAR char62
ENCODING 62
SWIDTH 436 0
DWIDTH 5 0
BBX 3 5 2 0
BITMAP
80
40
20
40
80
ENDCHAR
STARTCHAR char63
ENCODING 63
SWIDTH 436 0
DWIDTH 5 0
BBX 4 6 1 0
BITMAP
60
90
20
40
00
40
ENDCHAR
STARTCHAR char64
ENCODING 64
SWIDTH 436 0
DWIDTH 5 0
BBX 4 6 1 0
BITMAP
F0
90
B0
B0
80
F0
ENDCHAR
STARTCHAR char65
ENCODING 65
SWIDTH 436 0
DWIDTH 5 0
BBX 4 6 1 0
BITMAP
60
90
90
F0
90
90
ENDCHAR
STARTCHAR char66
ENCODING 66
SWIDTH 436 0
DWIDTH 5 0
BBX 4 6 1 0
BITMAP
E0
90
E0
90
90
E0
ENDCHAR
STARTCHAR char67
ENCODING 67
SWIDTH 436 0
DWIDTH 5 0
BBX 4 6 1 0
BITMAP
70
80
80
80
80
70
ENDCHAR
STARTCHAR char68
ENCODING 68
SWIDTH 436 0
DWIDTH 5 0
BBX 4 6 1 0
BITMAP
E0
90
90
90
90
E0
ENDCHAR
STARTCHAR char69
ENCODING 69
SWIDTH 436 0
DWIDTH 5 0
BBX 4 6 1 0
BITMAP
F0
80
E0
80
80
F0
ENDCHAR
STARTCHAR char70
ENCODING 70
SWIDTH 436 0
DWIDTH 5 0
BBX 4 6 1 0
BITMAP
F0
80
E0
80
80
80
ENDCHAR
STARTCHAR char71
ENCODING 71
SWIDTH 436 0
DWIDTH 5 0
BBX 4 6 1 0
BITMAP
70
80
B0
90
B0
50
ENDCHAR
STARTCHAR char72
ENCODING 72
SWIDTH 436 0
DWIDTH 5 0
BBX 4 6 1 0
BITMAP
90
90
F0
90
90
90
ENDCHAR
STARTCHAR char73
ENCODING 73
SWIDTH 436 0
DWIDTH 5 0
BBX 3 6 1 0
BITMAP
E0
40
40
40
40
E0
ENDCHAR
STARTCHAR char74
ENCODING 74
SWIDTH 436 0
DWIDTH 5 0
BBX 4 6 1 0
BITMAP
30
10
10
10
90
60
ENDCHAR
STARTCHAR char75
ENCODING 75
SWIDTH 436 0
DWIDTH 5 0
BBX 4 6 1 0
BITMAP
90
A0
C0
A0
90
90
ENDCHAR
STARTCHAR char76
ENCODING 76
SWIDTH 436 0
DWIDTH 5 0
BBX 4 6 1 0
BITMAP
80
80
80
80
80
F0
ENDCHAR
STARTCHAR char77
ENCODING 77
SWIDTH 436 0
DWIDTH 5 0
BBX 4 6 1 0
BITMAP
90
F0
B0
90
90
90
ENDCHAR
STARTCHAR char78
ENCODING 78
SWIDTH 436 0
DWIDTH 5 0
BBX 4 6 1 0
BITMAP
90
D0
D0
B0
B0
90
ENDCHAR
STARTCHAR char79
ENCODING 79
SWIDTH 436 0
DWIDTH 5 0
BBX 4 6 1 0
BITMAP
60
90
90
90
90
60
ENDCHAR
STARTCHAR char80
ENCODING 80
SWIDTH 436 0
DWIDTH 5 0
BBX 4 6 1 0
BITMAP
E0
90
90
E0
80
80
ENDCHAR
STARTCHAR char81
ENCODING 81
SWIDTH 436 0
DWIDTH 5 0
BBX 4 7 1 -1
BITMAP
60
90
90
90
90
60
30
ENDCHAR
STARTCHAR char82
ENCODING 82
SWIDTH 436 0
DWIDTH 5 0
BBX 4 6 1 0
BITMAP
E0
90
90
E0
90
90
ENDCHAR
STARTCHAR char83
ENCODING 83
SWIDTH 436 0
DWIDTH 5 0
BBX 4 6 1 0
BITMAP
70
80
60
10
10
E0
ENDCHAR
STARTCHAR char84
ENCODING 84
SWIDTH 436 0
DWIDTH 5 0
BBX 5 6 0 0
BITMAP
F8
20
20
20
20
20
ENDCHAR
STARTCHAR char85
ENCODING 85
SWIDTH 436 0
DWIDTH 5 0
BBX 4 6 1 0
BITMAP
90
90
90
90
B0
50
ENDCHAR
STARTCHAR char86
ENCODING 86
SWIDTH 436 0
DWIDTH 5 0
BBX 4 6 1 0
BITMAP
90
90
90
90
60
60
ENDCHAR
STARTCHAR char87
ENCODING 87
SWIDTH 436 0
DWIDTH 5 0
BBX 4 6 1 0
BITMAP
90
90
90
90
F0
90
ENDCHAR
STARTCHAR char88
ENCODING 88
SWIDTH 436 0
DWIDTH 5 0
BBX 4 6 1 0
BITMAP
90
90
60
90
90
90
ENDCHAR
STARTCHAR char89
ENCODING 89
SWIDTH 436 0
DWIDTH 5 0
BBX 5 6 0 0
BITMAP
88
50
20
20
20
20
ENDCHAR
STARTCHAR char90
ENCODING 90
SWIDTH 436 0
DWIDTH 5 0
BBX 4 6 1 0
BITMAP
F0
10
20
40
80
F0
ENDCHAR
STARTCHAR char91
ENCODING 91
SWIDTH 436 0
DWIDTH 5 0
BBX 3 8 1 -1
BITMAP
E0
80
80
80
80
80
80
E0
ENDCHAR
STARTCHAR char92
ENCODING 92
SWIDTH 436 0
DWIDTH 5 0
BBX 4 8 1 -1
BITMAP
80
80
40
40
20
20
10
10
ENDCHAR
STARTCHAR char93
ENCODING 93
SWIDTH 436 0
DWIDTH 5 0
BBX 3 8 2 -1
BITMAP
E0
20
20
20
20
20
20
E0
ENDCHAR
STARTCHAR char94
ENCODING 94
SWIDTH 436 0
DWIDTH 5 0
BBX 5 3 0 4
BITMAP
20
50
88
ENDCHAR
STARTCHAR char95
ENCODING 95
SWIDTH 436 0
DWIDTH 5 0
BBX 5 1 0 -1
BITMAP
F8
ENDCHAR
STARTCHAR char96
ENCODING 96
SWIDTH 436 0
DWIDTH 5 0
BBX 3 3 1 4
BITMAP
80
40
20
ENDCHAR
STARTCHAR char97
ENCODING 97
SWIDTH 436 0
DWIDTH 5 0
BBX 4 5 1 0
BITMAP
70
90
90
B0
50
ENDCHAR
STARTCHAR char98
ENCODING 98
SWIDTH 436 0
DWIDTH 5 0
BBX 4 7 1 0
BITMAP
80
80
A0
D0
90
90
E0
ENDCHAR
STARTCHAR char99
ENCODING 99
SWIDTH 436 0
DWIDTH 5 0
BBX 4 5 1 0
BITMAP
70
80
80
80
70
ENDCHAR
STARTCHAR char100
ENCODING 100
SWIDTH 436 0
DWIDTH 5 0
BBX 4 7 1 0
BITMAP
10
10
70
90
90
B0
50
ENDCHAR
STARTCHAR char101
ENCODING 101
SWIDTH 436 0
DWIDTH 5 0
BBX 4 5 1 0
BITMAP
60
90
F0
80
70
ENDCHAR
STARTCHAR char102
ENCODING 102
SWIDTH 436 0
DWIDTH 5 0
BBX 4 8 1 -1
BITMAP
30
40
E0
40
40
40
40
80
ENDCHAR
STARTCHAR char103
ENCODING 103
SWIDTH 436 0
DWIDTH 5 0
BBX 4 7 1 -2
BITMAP
70
90
90
B0
50
10
60
ENDCHAR
STARTCHAR char104
ENCODING 104
SWIDTH 436 0
DWIDTH 5 0
BBX 4 7 1 0
BITMAP
80
80
A0
D0
90
90
90
ENDCHAR
STARTCHAR char105
ENCODING 105
SWIDTH 436 0
DWIDTH 5 0
BBX 4 7 1 0
BITMAP
40
00
C0
40
40
40
30
ENDCHAR
STARTCHAR char106
ENCODING 106
SWIDTH 436 0
DWIDTH 5 0
BBX 3 9 1 -2
BITMAP
20
00
60
20
20
20
20
20
C0
ENDCHAR
STARTCHAR char107
ENCODING 107
SWIDTH 436 0
DWIDTH 5 0
BBX 4 7 1 0
BITMAP
80
80
90
A0
C0
A0
90
ENDCHAR
STARTCHAR char108
ENCODING 108
SWIDTH 436 0
DWIDTH 5 0
BBX 4 7 1 0
BITMAP
C0
40
40
40
40
40
30
ENDCHAR
STARTCHAR char109
ENCODING 109
SWIDTH 436 0
DWIDTH 5 0
BBX 4 5 1 0
BITMAP
90
F0
B0
90
90
ENDCHAR
STARTCHAR char110
ENCODING 110
SWIDTH 436 0
DWIDTH 5 0
BBX 4 5 1 0
BITMAP
A0
D0
90
90
90
ENDCHAR
STARTCHAR char111
ENCODING 111
SWIDTH 436 0
DWIDTH 5 0
BBX 4 5 1 0
BITMAP
60
90
90
90
60
ENDCHAR
STARTCHAR char112
ENCODING 112
SWIDTH 436 0
DWIDTH 5 0
BBX 4 7 1 -2
BITMAP
A0
D0
90
90
E0
80
80
ENDCHAR
STARTCHAR char113
ENCODING 113
SWIDTH 436 0
DWIDTH 5 0
BBX 4 7 1 -2
BITMAP
50
B0
90
90
70
10
10
ENDCHAR
STARTCHAR char114
ENCODING 114
SWIDTH 436 0
DWIDTH 5 0
BBX 4 5 1 0
BITMAP
A0
D0
80
80
80
ENDCHAR
STARTCHAR char115
ENCODING 115
SWIDTH 436 0
DWIDTH 5 0
BBX 4 5 1 0
BITMAP
70
80
60
10
E0
ENDCHAR
STARTCHAR char116
ENCODING 116
SWIDTH 436 0
DWIDTH 5 0
BBX 4 7 1 0
BITMAP
40
40
F0
40
40
40
30
ENDCHAR
STARTCHAR char117
ENCODING 117
SWIDTH 436 0
DWIDTH 5 0
BBX 4 5 1 0
BITMAP
90
90
90
B0
50
ENDCHAR
STARTCHAR char118
ENCODING 118
SWIDTH 436 0
DWIDTH 5 0
BBX 4 5 1 0
BITMAP
90
90
90
60
60
ENDCHAR
STARTCHAR char119
ENCODING 119
SWIDTH 436 0
DWIDTH 5 0
BBX 4 5 1 0
BITMAP
90
90
90
F0
90
ENDCHAR
STARTCHAR char120
ENCODING 120
SWIDTH 436 0
DWIDTH 5 0
BBX 4 5 1 0
BITMAP
90
90
60
90
90
ENDCHAR
STARTCHAR char121
ENCODING 121
SWIDTH 436 0
DWIDTH 5 0
BBX 4 7 1 -2
BITMAP
90
90
90
B0
50
10
60
ENDCHAR
STARTCHAR char122
ENCODING 122
SWIDTH 436 0
DWIDTH 5 0
BBX 4 5 1 0
BITMAP
F0
20
40
80
F0
ENDCHAR
STARTCHAR char123
ENCODING 123
SWIDTH 436 0
DWIDTH 5 0
BBX 3 8 1 -1
BITMAP
20
40
40
80
40
40
40
20
ENDCHAR
STARTCHAR char124
ENCODING 124
SWIDTH 436 0
DWIDTH 5 0
BBX 1 8 2 -1
BITMAP
80
80
80
80
80
80
80
80
ENDCHAR
STARTCHAR char125
ENCODING 125
SWIDTH 436 0
DWIDTH 5 0
BBX 3 8 2 -1
BITMAP
80
40
40
20
40
40
40
80
ENDCHAR
STARTCHAR char126
ENCODING 126
SWIDTH 436 0
DWIDTH 5 0
BBX 5 4 0 1
BITMAP
40
A8
A8
10
ENDCHAR
STARTCHAR char160
ENCODING 160
SWIDTH 436 0
DWIDTH 5 0
BBX 0 0 0 0
BITMAP
ENDCHAR
STARTCHAR char161
ENCODING 161
SWIDTH 436 0
DWIDTH 5 0
BBX 3 6 0 0
BITMAP
20
00
20
20
20
20
ENDCHAR
STARTCHAR char162
ENCODING 162
SWIDTH 436 0
DWIDTH 5 0
BBX 5 7 0 -1
BITMAP
10
38
50
50
50
38
10
ENDCHAR
STARTCHAR char163
ENCODING 163
SWIDTH 436 0
DWIDTH 5 0
BBX 4 7 1 0
BITMAP
20
50
40
E0
40
40
B0
ENDCHAR
STARTCHAR char164
ENCODING 164
SWIDTH 436 0
DWIDTH 5 0
BBX 5 5 0 1
BITMAP
88
70
50
70
88
ENDCHAR
STARTCHAR char165
ENCODING 165
SWIDTH 436 0
DWIDTH 5 0
BBX 5 6 0 0
BITMAP
88
50
20
70
70
20
ENDCHAR
STARTCHAR char166
ENCODING 166
SWIDTH 436 0
DWIDTH 5 0
BBX 3 7 0 0
BITMAP
20
20
20
00
20
20
20
ENDCHAR
STARTCHAR char167
ENCODING 167
SWIDTH 436 0
DWIDTH 5 0
BBX 3 7 1 0
BITMAP
60
80
C0
A0
60
20
C0
ENDCHAR
STARTCHAR char168
ENCODING 168
SWIDTH 436 0
DWIDTH 5 0
BBX 3 1 1 5
BITMAP
A0
ENDCHAR
STARTCHAR char169
ENCODING 169
SWIDTH 436 0
DWIDTH 5 0
BBX 5 7 0 0
BITMAP
70
88
B8
C8
B8
88
70
ENDCHAR
STARTCHAR char170
ENCODING 170
SWIDTH 436 0
DWIDTH 5 0
BBX 4 4 1 3
BITMAP
70
90
B0
50
ENDCHAR
STARTCHAR char171
ENCODING 171
SWIDTH 436 0
DWIDTH 5 0
BBX 5 5 0 0
BITMAP
28
50
A0
50
28
ENDCHAR
STARTCHAR char172
ENCODING 172
SWIDTH 436 0
DWIDTH 5 0
BBX 4 3 1 1
BITMAP
F0
10
10
ENDCHAR
STARTCHAR char173
ENCODING 173
SWIDTH 436 0
DWIDTH 5 0
BBX 5 1 0 2
BITMAP
F8
ENDCHAR
STARTCHAR char174
ENCODING 174
SWIDTH 436 0
DWIDTH 5 0
BBX 5 7 0 0
BITMAP
70
88
F8
E8
D8
88
70
ENDCHAR
STARTCHAR char175
ENCODING 175
SWIDTH 436 0
DWIDTH 5 0
BBX 5 1 0 6
BITMAP
F8
ENDCHAR
STARTCHAR char176
ENCODING 176
SWIDTH 436 0
DWIDTH 5 0
BBX 3 3 1 4
BITMAP
40
A0
40
ENDCHAR
STARTCHAR char177
ENCODING 177
SWIDTH 436 0
DWIDTH 5 0
BBX 5 7 0 0
BITMAP
20
20
F8
20
20
00
F8
ENDCHAR
STARTCHAR char178
ENCODING 178
SWIDTH 436 0
DWIDTH 5 0
BBX 3 4 1 4
BITMAP
C0
20
40
E0
ENDCHAR
STARTCHAR char179
ENCODING 179
SWIDTH 436 0
DWIDTH 5 0
BBX 3 4 1 4
BITMAP
C0
60
20
C0
ENDCHAR
STARTCHAR char180
ENCODING 180
SWIDTH 436 0
DWIDTH 5 0
BBX 2 3 2 5
BITMAP
40
40
80
ENDCHAR
STARTCHAR char181
ENCODING 181
SWIDTH 436 0
DWIDTH 5 0
BBX 5 7 0 -2
BITMAP
48
48
48
48
70
40
40
ENDCHAR
STARTCHAR char182
ENCODING 182
SWIDTH 436 0
DWIDTH 5 0
BBX 4 7 1 0
BITMAP
70
D0
D0
D0
50
50
50
ENDCHAR
STARTCHAR char183
ENCODING 183
SWIDTH 436 0
DWIDTH 5 0
BBX 1 2 2 2
BITMAP
80
80
ENDCHAR
STARTCHAR char184
ENCODING 184
SWIDTH 436 0
DWIDTH 5 0
BBX 4 3 0 -2
BITMAP
20
10
60
ENDCHAR
STARTCHAR char185
ENCODING 185
SWIDTH 436 0
DWIDTH 5 0
BBX 4 4 1 4
BITMAP
40
C0
40
E0
ENDCHAR
STARTCHAR char186
ENCODING 186
SWIDTH 436 0
DWIDTH 5 0
BBX 4 6 1 2
BITMAP
60
90
90
60
00
F0
ENDCHAR
STARTCHAR char187
ENCODING 187
SWIDTH 436 0
DWIDTH 5 0
BBX 5 5 0 0
BITMAP
A0
50
28
50
A0
ENDCHAR
STARTCHAR char188
ENCODING 188
SWIDTH 436 0
DWIDTH 5 0
BBX 3 10 1 -2
BITMAP
C0
40
E0
00
E0
00
A0
A0
60
20
ENDCHAR
STARTCHAR char189
ENCODING 189
SWIDTH 436 0
DWIDTH 5 0
BBX 3 10 1 -2
BITMAP
C0
40
E0
00
E0
00
C0
20
40
E0
ENDCHAR
STARTCHAR char190
ENCODING 190
SWIDTH 436 0
DWIDTH 5 0
BBX 3 10 1 -2
BITMAP
C0
60
C0
00
E0
00
A0
A0
60
20
ENDCHAR
STARTCHAR char63
ENCODING 191
SWIDTH 436 0
DWIDTH 5 0
BBX 3 6 1 0
BITMAP
40
00
40
80
A0
E0
ENDCHAR
STARTCHAR char192
ENCODING 192
SWIDTH 436 0
DWIDTH 5 0
BBX 4 8 1 0
BITMAP
40
20
60
90
90
F0
90
90
ENDCHAR
STARTCHAR char193
ENCODING 193
SWIDTH 436 0
DWIDTH 5 0
BBX 4 8 1 0
BITMAP
20
40
60
90
90
F0
90
90
ENDCHAR
STARTCHAR char194
ENCODING 194
SWIDTH 436 0
DWIDTH 5 0
BBX 4 8 1 0
BITMAP
F0
00
60
90
90
F0
90
90
ENDCHAR
STARTCHAR char195
ENCODING 195
SWIDTH 436 0
DWIDTH 5 0
BBX 4 8 1 0
BITMAP
50
A0
60
90
90
F0
90
90
ENDCHAR
STARTCHAR char196
ENCODING 196
SWIDTH 436 0
DWIDTH 5 0
BBX 4 8 1 0
BITMAP
90
00
60
90
90
F0
90
90
ENDCHAR
STARTCHAR char197
ENCODING 197
SWIDTH 436 0
DWIDTH 5 0
BBX 4 8 1 0
BITMAP
60
90
60
90
90
F0
90
90
ENDCHAR
STARTCHAR char198
ENCODING 198
SWIDTH 436 0
DWIDTH 5 0
BBX 5 6 0 0
BITMAP
78
A0
B0
E0
A0
B8
ENDCHAR
STARTCHAR char199
ENCODING 199
SWIDTH 436 0
DWIDTH 5 0
BBX 4 8 1 -2
BITMAP
70
80
80
80
80
70
20
40
ENDCHAR
STARTCHAR char200
ENCODING 200
SWIDTH 436 0
DWIDTH 5 0
BBX 4 8 1 0
BITMAP
40
20
F0
80
E0
80
80
F0
ENDCHAR
STARTCHAR char201
ENCODING 201
SWIDTH 436 0
DWIDTH 5 0
BBX 4 8 1 0
BITMAP
20
40
F0
80
E0
80
80
F0
ENDCHAR
STARTCHAR char202
ENCODING 202
SWIDTH 436 0
DWIDTH 5 0
BBX 4 8 1 0
BITMAP
F0
00
F0
80
E0
80
80
F0
ENDCHAR
STARTCHAR char203
ENCODING 203
SWIDTH 436 0
DWIDTH 5 0
BBX 4 8 1 0
BITMAP
90
00
F0
80
E0
80
80
F0
ENDCHAR
STARTCHAR char204
ENCODING 204
SWIDTH 436 0
DWIDTH 5 0
BBX 3 8 1 0
BITMAP
80
40
E0
40
40
40
40
E0
ENDCHAR
STARTCHAR char205
ENCODING 205
SWIDTH 436 0
DWIDTH 5 0
BBX 3 8 1 0
BITMAP
20
40
E0
40
40
40
40
E0
ENDCHAR
STARTCHAR char206
ENCODING 206
SWIDTH 436 0
DWIDTH 5 0
BBX 3 8 1 0
BITMAP
E0
00
E0
40
40
40
40
E0
ENDCHAR
STARTCHAR char207
ENCODING 207
SWIDTH 436 0
DWIDTH 5 0
BBX 3 8 1 0
BITMAP
A0
00
E0
40
40
40
40
E0
ENDCHAR
STARTCHAR char208
ENCODING 208
SWIDTH 436 0
DWIDTH 5 0
BBX 5 6 0 0
BITMAP
70
48
E8
48
48
70
ENDCHAR
STARTCHAR char209
ENCODING 209
SWIDTH 436 0
DWIDTH 5 0
BBX 4 8 1 0
BITMAP
50
A0
00
90
D0
F0
B0
90
ENDCHAR
STARTCHAR char210
ENCODING 210
SWIDTH 436 0
DWIDTH 5 0
BBX 4 8 1 0
BITMAP
40
20
60
90
90
90
90
60
ENDCHAR
STARTCHAR char211
ENCODING 211
SWIDTH 436 0
DWIDTH 5 0
BBX 4 8 1 0
BITMAP
20
40
60
90
90
90
90
60
ENDCHAR
STARTCHAR char212
ENCODING 212
SWIDTH 436 0
DWIDTH 5 0
BBX 5 8 0 0
BITMAP
78
00
30
48
48
48
48
30
ENDCHAR
STARTCHAR char213
ENCODING 213
SWIDTH 436 0
DWIDTH 5 0
BBX 5 8 0 0
BITMAP
28
50
30
48
48
48
48
30
ENDCHAR
STARTCHAR char214
ENCODING 214
SWIDTH 436 0
DWIDTH 5 0
BBX 5 8 0 0
BITMAP
48
00
30
48
48
48
48
30
ENDCHAR
STARTCHAR char215
ENCODING 215
SWIDTH 436 0
DWIDTH 5 0
BBX 5 5 0 0
BITMAP
88
50
20
50
88
ENDCHAR
STARTCHAR char216
ENCODING 216
SWIDTH 436 0
DWIDTH 5 0
BBX 4 6 1 0
BITMAP
70
B0
B0
D0
D0
E0
ENDCHAR
STARTCHAR char217
ENCODING 217
SWIDTH 436 0
DWIDTH 5 0
BBX 4 8 1 0
BITMAP
40
20
90
90
90
90
B0
50
ENDCHAR
STARTCHAR char218
ENCODING 218
SWIDTH 436 0
DWIDTH 5 0
BBX 4 8 1 0
BITMAP
20
40
90
90
90
90
B0
50
ENDCHAR
STARTCHAR char219
ENCODING 219
SWIDTH 436 0
DWIDTH 5 0
BBX 5 8 0 0
BITMAP
78
00
48
48
48
48
58
28
ENDCHAR
STARTCHAR char220
ENCODING 220
SWIDTH 436 0
DWIDTH 5 0
BBX 4 8 1 0
BITMAP
90
00
90
90
90
90
B0
50
ENDCHAR
STARTCHAR char221
ENCODING 221
SWIDTH 436 0
DWIDTH 5 0
BBX 5 8 0 0
BITMAP
10
20
88
50
20
20
20
20
ENDCHAR
STARTCHAR char222
ENCODING 222
SWIDTH 436 0
DWIDTH 5 0
BBX 4 6 1 0
BITMAP
80
E0
90
90
E0
80
ENDCHAR
STARTCHAR char223
ENCODING 223
SWIDTH 436 0
DWIDTH 5 0
BBX 4 6 1 0
BITMAP
60
90
A0
90
90
A0
ENDCHAR
STARTCHAR char224
ENCODING 224
SWIDTH 436 0
DWIDTH 5 0
BBX 4 8 1 0
BITMAP
40
20
00
70
90
90
B0
50
ENDCHAR
STARTCHAR char225
ENCODING 225
SWIDTH 436 0
DWIDTH 5 0
BBX 4 8 1 0
BITMAP
20
40
00
70
90
90
B0
50
ENDCHAR
STARTCHAR char226
ENCODING 226
SWIDTH 436 0
DWIDTH 5 0
BBX 4 8 1 0
BITMAP
60
90
00
70
90
90
B0
50
ENDCHAR
STARTCHAR char227
ENCODING 227
SWIDTH 436 0
DWIDTH 5 0
BBX 4 8 1 0
BITMAP
50
A0
00
70
90
90
B0
50
ENDCHAR
STARTCHAR char228
ENCODING 228
SWIDTH 436 0
DWIDTH 5 0
BBX 5 7 0 0
BITMAP
48
00
38
48
48
58
28
ENDCHAR
STARTCHAR char229
ENCODING 229
SWIDTH 436 0
DWIDTH 5 0
BBX 4 8 1 0
BITMAP
60
90
60
70
90
90
B0
50
ENDCHAR
STARTCHAR char230
ENCODING 230
SWIDTH 436 0
DWIDTH 5 0
BBX 5 5 0 0
BITMAP
50
A8
B8
A0
78
ENDCHAR
STARTCHAR char231
ENCODING 231
SWIDTH 436 0
DWIDTH 5 0
BBX 4 7 1 -2
BITMAP
70
80
80
80
70
20
40
ENDCHAR
STARTCHAR char232
ENCODING 232
SWIDTH 436 0
DWIDTH 5 0
BBX 5 8 0 0
BITMAP
20
10
00
30
48
78
40
38
ENDCHAR
STARTCHAR char233
ENCODING 233
SWIDTH 436 0
DWIDTH 5 0
BBX 5 8 0 0
BITMAP
10
20
00
30
48
78
40
38
ENDCHAR
STARTCHAR char234
ENCODING 234
SWIDTH 436 0
DWIDTH 5 0
BBX 4 8 1 0
BITMAP
60
90
00
60
90
F0
80
70
ENDCHAR
STARTCHAR char235
ENCODING 235
SWIDTH 436 0
DWIDTH 5 0
BBX 4 7 1 0
BITMAP
90
00
60
90
F0
80
70
ENDCHAR
STARTCHAR char236
ENCODING 236
SWIDTH 436 0
DWIDTH 5 0
BBX 3 7 1 0
BITMAP
80
40
00
C0
40
40
60
ENDCHAR
STARTCHAR char237
ENCODING 237
SWIDTH 436 0
DWIDTH 5 0
BBX 4 7 0 0
BITMAP
10
20
00
60
20
20
30
ENDCHAR
STARTCHAR char238
ENCODING 238
SWIDTH 436 0
DWIDTH 5 0
BBX 3 7 1 0
BITMAP
40
A0
00
C0
40
40
60
ENDCHAR
STARTCHAR char239
ENCODING 239
SWIDTH 436 0
DWIDTH 5 0
BBX 4 6 1 0
BITMAP
A0
00
C0
40
40
60
ENDCHAR
STARTCHAR char240
ENCODING 240
SWIDTH 436 0
DWIDTH 5 0
BBX 4 7 1 0
BITMAP
10
30
10
70
90
90
60
ENDCHAR
STARTCHAR char241
ENCODING 241
SWIDTH 436 0
DWIDTH 5 0
BBX 5 8 0 0
BITMAP
28
50
00
50
68
48
48
48
ENDCHAR
STARTCHAR char242
ENCODING 242
SWIDTH 436 0
DWIDTH 5 0
BBX 5 8 0 0
BITMAP
20
10
00
30
48
48
48
30
ENDCHAR
STARTCHAR char243
ENCODING 243
SWIDTH 436 0
DWIDTH 5 0
BBX 5 8 0 0
BITMAP
10
20
00
30
48
48
48
30
ENDCHAR
STARTCHAR char244
ENCODING 244
SWIDTH 436 0
DWIDTH 5 0
BBX 4 8 1 0
BITMAP
60
90
00
60
90
90
90
60
ENDCHAR
STARTCHAR char245
ENCODING 245
SWIDTH 436 0
DWIDTH 5 0
BBX 5 8 0 0
BITMAP
28
50
00
30
48
48
48
30
ENDCHAR
STARTCHAR char246
ENCODING 246
SWIDTH 436 0
DWIDTH 5 0
BBX 4 7 1 0
BITMAP
90
00
60
90
90
90
60
ENDCHAR
STARTCHAR char247
ENCODING 247
SWIDTH 436 0
DWIDTH 5 0
BBX 5 5 0 0
BITMAP
20
00
F8
00
20
ENDCHAR
STARTCHAR char248
ENCODING 248
SWIDTH 436 0
DWIDTH 5 0
BBX 5 5 0 0
BITMAP
38
58
78
68
70
ENDCHAR
STARTCHAR char249
ENCODING 249
SWIDTH 436 0
DWIDTH 5 0
BBX 4 8 1 0
BITMAP
40
20
00
90
90
90
B0
50
ENDCHAR
STARTCHAR char250
ENCODING 250
SWIDTH 436 0
DWIDTH 5 0
BBX 5 8 0 0
BITMAP
10
20
00
48
48
48
58
28
ENDCHAR
STARTCHAR char251
ENCODING 251
SWIDTH 436 0
DWIDTH 5 0
BBX 5 8 0 0
BITMAP
30
48
00
48
48
48
58
28
ENDCHAR
STARTCHAR char252
ENCODING 252
SWIDTH 436 0
DWIDTH 5 0
BBX 5 7 0 0
BITMAP
48
00
48
48
48
58
28
ENDCHAR
STARTCHAR char253
ENCODING 253
SWIDTH 436 0
DWIDTH 5 0
BBX 4 10 1 -2
BITMAP
20
40
00
90
90
90
B0
50
10
60
ENDCHAR
STARTCHAR char254
ENCODING 254
SWIDTH 436 0
DWIDTH 5 0
BBX 5 5 0 0
BITMAP
40
70
48
70
40
ENDCHAR
STARTCHAR char255
ENCODING 255
SWIDTH 436 0
DWIDTH 5 0
BBX 5 9 0 -2
BITMAP
48
00
48
48
48
58
28
08
30
ENDCHAR
STARTCHAR char955
ENCODING 955
SWIDTH 436 0
DWIDTH 5 0
BBX 4 6 1 0
BITMAP
80
80
40
60
90
90
ENDCHAR
STARTCHAR char8211
ENCODING 8211
SWIDTH 436 0
DWIDTH 5 0
BBX 4 1 1 3
BITMAP
F0
ENDCHAR
STARTCHAR char8212
ENCODING 8212
SWIDTH 436 0
DWIDTH 5 0
BBX 5 1 0 3
BITMAP
F8
ENDCHAR
STARTCHAR char8216
ENCODING 8216
SWIDTH 436 0
DWIDTH 5 0
BBX 2 3 2 4
BITMAP
40
80
C0
ENDCHAR
STARTCHAR char8217
ENCODING 8217
SWIDTH 436 0
DWIDTH 5 0
BBX 2 3 2 4
BITMAP
C0
40
80
ENDCHAR
STARTCHAR char8220
ENCODING 8220
SWIDTH 436 0
DWIDTH 5 0
BBX 5 3 0 4
BITMAP
48
90
D8
ENDCHAR
STARTCHAR char8221
ENCODING 8221
SWIDTH 436 0
DWIDTH 5 0
BBX 5 3 0 4
BITMAP
D8
48
90
ENDCHAR
STARTCHAR char8224
ENCODING 8224
SWIDTH 436 0
DWIDTH 5 0
BBX 3 6 1 0
BITMAP
40
E0
40
40
40
40
ENDCHAR
STARTCHAR char8225
ENCODING 8225
SWIDTH 436 0
DWIDTH 5 0
BBX 3 6 1 0
BITMAP
40
E0
40
40
E0
40
ENDCHAR
STARTCHAR char8226
ENCODING 8226
SWIDTH 436 0
DWIDTH 5 0
BBX 3 3 1 1
BITMAP
40
E0
40
ENDCHAR
STARTCHAR char8227
ENCODING 8227
SWIDTH 436 0
DWIDTH 5 0
BBX 4 7 1 -1
BITMAP
80
C0
E0
F0
E0
C0
80
ENDCHAR
STARTCHAR char8228
ENCODING 8228
SWIDTH 436 0
DWIDTH 5 0
BBX 3 2 0 0
BITMAP
20
20
ENDCHAR
STARTCHAR char8229
ENCODING 8229
SWIDTH 436 0
DWIDTH 5 0
BBX 3 1 1 0
BITMAP
A0
ENDCHAR
STARTCHAR char8230
ENCODING 8230
SWIDTH 436 0
DWIDTH 5 0
BBX 5 1 0 0
BITMAP
A8
ENDCHAR
STARTCHAR char8231
ENCODING 8231
SWIDTH 436 0
DWIDTH 5 0
BBX 1 2 2 2
BITMAP
80
80
ENDCHAR
STARTCHAR char8242
ENCODING 8242
SWIDTH 436 0
DWIDTH 5 0
BBX 2 3 2 5
BITMAP
40
40
80
ENDCHAR
STARTCHAR char8243
ENCODING 8243
SWIDTH 436 0
DWIDTH 5 0
BBX 5 3 0 5
BITMAP
48
48
90
ENDCHAR
STARTCHAR char8592
ENCODING 8592
SWIDTH 436 0
DWIDTH 5 0
BBX 5 5 0 1
BITMAP
20
60
F8
60
20
ENDCHAR
STARTCHAR char8593
ENCODING 8593
SWIDTH 436 0
DWIDTH 5 0
BBX 5 8 0 0
BITMAP
20
70
F8
20
20
20
20
20
ENDCHAR
STARTCHAR char8594
ENCODING 8594
SWIDTH 436 0
DWIDTH 5 0
BBX 5 5 0 1
BITMAP
20
30
F8
30
20
ENDCHAR
STARTCHAR char8595
ENCODING 8595
SWIDTH 436 0
DWIDTH 5 0
BBX 5 8 0 0
BITMAP
20
20
20
20
20
F8
70
20
ENDCHAR
STARTCHAR char8656
ENCODING 8656
SWIDTH 436 0
DWIDTH 5 0
BBX 5 5 0 1
BITMAP
20
78
C0
78
20
ENDCHAR
STARTCHAR char8657
ENCODING 8657
SWIDTH 436 0
DWIDTH 5 0
BBX 5 5 0 1
BITMAP
20
F0
18
F0
20
ENDCHAR
STARTCHAR char8658
ENCODING 8658
SWIDTH 436 0
DWIDTH 5 0
BBX 3 5 0 1
BITMAP
20
40
80
40
20
ENDCHAR
STARTCHAR char8659
ENCODING 8659
SWIDTH 436 0
DWIDTH 5 0
BBX 3 5 2 1
BITMAP
80
40
20
40
80
ENDCHAR
STARTCHAR char9472
ENCODING 9472
SWIDTH 436 0
DWIDTH 5 0
BBX 5 1 0 2
BITMAP
F8
ENDCHAR
STARTCHAR char9473
ENCODING 9473
SWIDTH 436 0
DWIDTH 5 0
BBX 5 2 0 2
BITMAP
F8
F8
ENDCHAR
STARTCHAR char9474
ENCODING 9474
SWIDTH 436 0
DWIDTH 5 0
BBX 3 10 0 -2
BITMAP
20
20
20
20
20
20
20
20
20
20
ENDCHAR
STARTCHAR char9475
ENCODING 9475
SWIDTH 436 0
DWIDTH 5 0
BBX 2 10 2 -2
BITMAP
C0
C0
C0
C0
C0
C0
C0
C0
C0
C0
ENDCHAR
STARTCHAR char9476
ENCODING 9476
SWIDTH 436 0
DWIDTH 5 0
BBX 3 1 1 2
BITMAP
A0
ENDCHAR
STARTCHAR char9477
ENCODING 9477
SWIDTH 436 0
DWIDTH 5 0
BBX 3 2 1 2
BITMAP
A0
A0
ENDCHAR
STARTCHAR char9478
ENCODING 9478
SWIDTH 436 0
DWIDTH 5 0
BBX 1 8 2 -1
BITMAP
80
80
00
80
80
00
80
80
ENDCHAR
STARTCHAR char9479
ENCODING 9479
SWIDTH 436 0
DWIDTH 5 0
BBX 2 8 2 -1
BITMAP
C0
C0
00
C0
C0
00
C0
C0
ENDCHAR
STARTCHAR char9480
ENCODING 9480
SWIDTH 436 0
DWIDTH 5 0
BBX 5 1 0 2
BITMAP
A8
ENDCHAR
STARTCHAR char9481
ENCODING 9481
SWIDTH 436 0
DWIDTH 5 0
BBX 5 2 0 2
BITMAP
A8
A8
ENDCHAR
STARTCHAR char9482
ENCODING 9482
SWIDTH 436 0
DWIDTH 5 0
BBX 3 9 0 -1
BITMAP
20
00
20
00
20
00
20
00
20
ENDCHAR
STARTCHAR char9483
ENCODING 9483
SWIDTH 436 0
DWIDTH 5 0
BBX 4 9 0 -1
BITMAP
30
00
30
00
30
00
30
00
30
ENDCHAR
STARTCHAR char9484
ENCODING 9484
SWIDTH 436 0
DWIDTH 5 0
BBX 3 5 2 -2
BITMAP
E0
80
80
80
80
ENDCHAR
STARTCHAR char9485
ENCODING 9485
SWIDTH 436 0
DWIDTH 5 0
BBX 5 6 0 -2
BITMAP
38
38
20
20
20
20
ENDCHAR
STARTCHAR char9486
ENCODING 9486
SWIDTH 436 0
DWIDTH 5 0
BBX 3 5 2 -2
BITMAP
E0
C0
C0
C0
C0
ENDCHAR
STARTCHAR char9487
ENCODING 9487
SWIDTH 436 0
DWIDTH 5 0
BBX 5 6 0 -2
BITMAP
38
38
30
30
30
30
ENDCHAR
STARTCHAR char9488
ENCODING 9488
SWIDTH 436 0
DWIDTH 5 0
BBX 3 5 0 -2
BITMAP
E0
20
20
20
20
ENDCHAR
STARTCHAR char9489
ENCODING 9489
SWIDTH 436 0
DWIDTH 5 0
BBX 3 6 0 -2
BITMAP
E0
E0
20
20
20
20
ENDCHAR
STARTCHAR char9490
ENCODING 9490
SWIDTH 436 0
DWIDTH 5 0
BBX 4 5 0 -2
BITMAP
F0
30
30
30
30
ENDCHAR
STARTCHAR char9491
ENCODING 9491
SWIDTH 436 0
DWIDTH 5 0
BBX 4 6 0 -2
BITMAP
F0
F0
30
30
30
30
ENDCHAR
STARTCHAR char9492
ENCODING 9492
SWIDTH 436 0
DWIDTH 5 0
BBX 3 6 2 2
BITMAP
80
80
80
80
80
E0
ENDCHAR
STARTCHAR char9493
ENCODING 9493
SWIDTH 436 0
DWIDTH 5 0
BBX 3 6 2 2
BITMAP
80
80
80
80
E0
E0
ENDCHAR
STARTCHAR char9494
ENCODING 9494
SWIDTH 436 0
DWIDTH 5 0
BBX 3 6 2 2
BITMAP
C0
C0
C0
C0
C0
E0
ENDCHAR
STARTCHAR char9495
ENCODING 9495
SWIDTH 436 0
DWIDTH 5 0
BBX 3 6 2 2
BITMAP
C0
C0
C0
C0
E0
E0
ENDCHAR
STARTCHAR char9496
ENCODING 9496
SWIDTH 436 0
DWIDTH 5 0
BBX 3 6 0 2
BITMAP
20
20
20
20
20
E0
ENDCHAR
STARTCHAR char9497
ENCODING 9497
SWIDTH 436 0
DWIDTH 5 0
BBX 3 6 0 2
BITMAP
20
20
20
20
E0
E0
ENDCHAR
STARTCHAR char9498
ENCODING 9498
SWIDTH 436 0
DWIDTH 5 0
BBX 4 6 0 2
BITMAP
30
30
30
30
30
F0
ENDCHAR
STARTCHAR char9499
ENCODING 9499
SWIDTH 436 0
DWIDTH 5 0
BBX 4 6 0 2
BITMAP
30
30
30
30
F0
F0
ENDCHAR
STARTCHAR char9500
ENCODING 9500
SWIDTH 436 0
DWIDTH 5 0
BBX 3 10 2 -2
BITMAP
80
80
80
80
80
E0
80
80
80
80
ENDCHAR
STARTCHAR char9501
ENCODING 9501
SWIDTH 436 0
DWIDTH 5 0
BBX 5 10 0 -2
BITMAP
20
20
20
20
38
38
20
20
20
20
ENDCHAR
STARTCHAR char9502
ENCODING 9502
SWIDTH 436 0
DWIDTH 5 0
BBX 3 10 2 -2
BITMAP
C0
C0
C0
C0
C0
E0
80
80
80
80
ENDCHAR
STARTCHAR char9503
ENCODING 9503
SWIDTH 436 0
DWIDTH 5 0
BBX 3 10 2 -2
BITMAP
80
80
80
80
80
E0
C0
C0
C0
C0
ENDCHAR
STARTCHAR char9504
ENCODING 9504
SWIDTH 436 0
DWIDTH 5 0
BBX 3 10 2 -2
BITMAP
C0
C0
C0
C0
C0
E0
C0
C0
C0
C0
ENDCHAR
STARTCHAR char9505
ENCODING 9505
SWIDTH 436 0
DWIDTH 5 0
BBX 5 10 0 -2
BITMAP
30
30
30
30
38
38
20
20
20
20
ENDCHAR
STARTCHAR char9506
ENCODING 9506
SWIDTH 436 0
DWIDTH 5 0
BBX 5 10 0 -2
BITMAP
20
20
20
20
38
38
30
30
30
30
ENDCHAR
STARTCHAR char9507
ENCODING 9507
SWIDTH 436 0
DWIDTH 5 0
BBX 5 10 0 -2
BITMAP
30
30
30
30
38
38
30
30
30
30
ENDCHAR
STARTCHAR char9508
ENCODING 9508
SWIDTH 436 0
DWIDTH 5 0
BBX 3 10 0 -2
BITMAP
20
20
20
20
20
E0
20
20
20
20
ENDCHAR
STARTCHAR char9509
ENCODING 9509
SWIDTH 436 0
DWIDTH 5 0
BBX 3 10 0 -2
BITMAP
20
20
20
20
E0
E0
20
20
20
20
ENDCHAR
STARTCHAR char9510
ENCODING 9510
SWIDTH 436 0
DWIDTH 5 0
BBX 4 10 0 -2
BITMAP
30
30
30
30
30
F0
20
20
20
20
ENDCHAR
STARTCHAR char9511
ENCODING 9511
SWIDTH 436 0
DWIDTH 5 0
BBX 4 10 0 -2
BITMAP
20
20
20
20
20
F0
30
30
30
30
ENDCHAR
STARTCHAR char9512
ENCODING 9512
SWIDTH 436 0
DWIDTH 5 0
BBX 4 10 0 -2
BITMAP
30
30
30
30
30
F0
30
30
30
30
ENDCHAR
STARTCHAR char9513
ENCODING 9513
SWIDTH 436 0
DWIDTH 5 0
BBX 4 10 0 -2
BITMAP
30
30
30
30
F0
F0
20
20
20
20
ENDCHAR
STARTCHAR char9514
ENCODING 9514
SWIDTH 436 0
DWIDTH 5 0
BBX 4 10 0 -2
BITMAP
20
20
20
20
F0
F0
30
30
30
30
ENDCHAR
STARTCHAR char9515
ENCODING 9515
SWIDTH 436 0
DWIDTH 5 0
BBX 4 10 0 -2
BITMAP
30
30
30
30
F0
F0
30
30
30
30
ENDCHAR
STARTCHAR char9516
ENCODING 9516
SWIDTH 436 0
DWIDTH 5 0
BBX 5 5 0 -2
BITMAP
F8
20
20
20
20
ENDCHAR
STARTCHAR char9517
ENCODING 9517
SWIDTH 436 0
DWIDTH 5 0
BBX 5 6 0 -2
BITMAP
E0
F8
20
20
20
20
ENDCHAR
STARTCHAR char9518
ENCODING 9518
SWIDTH 436 0
DWIDTH 5 0
BBX 5 6 0 -2
BITMAP
38
F8
20
20
20
20
ENDCHAR
STARTCHAR char9519
ENCODING 9519
SWIDTH 436 0
DWIDTH 5 0
BBX 5 6 0 -2
BITMAP
F8
F8
20
20
20
20
ENDCHAR
STARTCHAR char9520
ENCODING 9520
SWIDTH 436 0
DWIDTH 5 0
BBX 5 5 0 -2
BITMAP
F8
30
30
30
30
ENDCHAR
STARTCHAR char9521
ENCODING 9521
SWIDTH 436 0
DWIDTH 5 0
BBX 5 6 0 -2
BITMAP
F0
F8
30
30
30
30
ENDCHAR
STARTCHAR char9522
ENCODING 9522
SWIDTH 436 0
DWIDTH 5 0
BBX 5 6 0 -2
BITMAP
38
F8
30
30
30
30
ENDCHAR
STARTCHAR char9523
ENCODING 9523
SWIDTH 436 0
DWIDTH 5 0
BBX 5 6 0 -2
BITMAP
F8
F8
30
30
30
30
ENDCHAR
STARTCHAR char9524
ENCODING 9524
SWIDTH 436 0
DWIDTH 5 0
BBX 5 6 0 2
BITMAP
20
20
20
20
20
F8
ENDCHAR
STARTCHAR char9525
ENCODING 9525
SWIDTH 436 0
DWIDTH 5 0
BBX 5 6 0 2
BITMAP
20
20
20
20
E0
F8
ENDCHAR
STARTCHAR char9526
ENCODING 9526
SWIDTH 436 0
DWIDTH 5 0
BBX 5 6 0 2
BITMAP
20
20
20
20
38
F8
ENDCHAR
STARTCHAR char9527
ENCODING 9527
SWIDTH 436 0
DWIDTH 5 0
BBX 5 6 0 2
BITMAP
20
20
20
20
F8
F8
ENDCHAR
STARTCHAR char9528
ENCODING 9528
SWIDTH 436 0
DWIDTH 5 0
BBX 5 6 0 2
BITMAP
30
30
30
30
30
F8
ENDCHAR
STARTCHAR char9529
ENCODING 9529
SWIDTH 436 0
DWIDTH 5 0
BBX 5 6 0 2
BITMAP
30
30
30
30
F0
F8
ENDCHAR
STARTCHAR char9530
ENCODING 9530
SWIDTH 436 0
DWIDTH 5 0
BBX 5 6 0 2
BITMAP
30
30
30
30
38
F8
ENDCHAR
STARTCHAR char9531
ENCODING 9531
SWIDTH 436 0
DWIDTH 5 0
BBX 5 6 0 2
BITMAP
30
30
30
30
F8
F8
ENDCHAR
STARTCHAR char9532
ENCODING 9532
SWIDTH 436 0
DWIDTH 5 0
BBX 5 10 0 -2
BITMAP
20
20
20
20
20
F8
20
20
20
20
ENDCHAR
STARTCHAR char9533
ENCODING 9533
SWIDTH 436 0
DWIDTH 5 0
BBX 5 10 0 -2
BITMAP
20
20
20
20
E0
F8
20
20
20
20
ENDCHAR
STARTCHAR char9534
ENCODING 9534
SWIDTH 436 0
DWIDTH 5 0
BBX 5 10 0 -2
BITMAP
20
20
20
20
F8
38
20
20
20
20
ENDCHAR
STARTCHAR char9535
ENCODING 9535
SWIDTH 436 0
DWIDTH 5 0
BBX 5 10 0 -2
BITMAP
20
20
20
20
F8
F8
20
20
20
20
ENDCHAR
STARTCHAR char9536
ENCODING 9536
SWIDTH 436 0
DWIDTH 5 0
BBX 5 10 0 -2
BITMAP
30
30
30
30
30
F8
20
20
20
20
ENDCHAR
STARTCHAR char9537
ENCODING 9537
SWIDTH 436 0
DWIDTH 5 0
BBX 5 10 0 -2
BITMAP
20
20
20
20
20
F8
30
30
30
30
ENDCHAR
STARTCHAR char9538
ENCODING 9538
SWIDTH 436 0
DWIDTH 5 0
BBX 5 10 0 -2
BITMAP
30
30
30
30
30
F8
30
30
30
30
ENDCHAR
STARTCHAR char9539
ENCODING 9539
SWIDTH 436 0
DWIDTH 5 0
BBX 5 10 0 -2
BITMAP
30
30
30
30
F0
F8
20
20
20
20
ENDCHAR
STARTCHAR char9540
ENCODING 9540
SWIDTH 436 0
DWIDTH 5 0
BBX 5 10 0 -2
BITMAP
30
30
30
30
38
F8
20
20
20
20
ENDCHAR
STARTCHAR char9541
ENCODING 9541
SWIDTH 436 0
DWIDTH 5 0
BBX 5 10 0 -2
BITMAP
20
20
20
20
F0
F8
30
30
30
30
ENDCHAR
STARTCHAR char9542
ENCODING 9542
SWIDTH 436 0
DWIDTH 5 0
BBX 5 10 0 -2
BITMAP
20
20
20
20
38
F8
30
30
30
30
ENDCHAR
STARTCHAR char9543
ENCODING 9543
SWIDTH 436 0
DWIDTH 5 0
BBX 5 10 0 -2
BITMAP
30
30
30
30
F8
F8
20
20
20
20
ENDCHAR
STARTCHAR char9544
ENCODING 9544
SWIDTH 436 0
DWIDTH 5 0
BBX 5 10 0 -2
BITMAP
20
20
20
20
F8
F8
30
30
30
30
ENDCHAR
STARTCHAR char9545
ENCODING 9545
SWIDTH 436 0
DWIDTH 5 0
BBX 5 10 0 -2
BITMAP
30
30
30
30
F0
F8
30
30
30
30
ENDCHAR
STARTCHAR char9546
ENCODING 9546
SWIDTH 436 0
DWIDTH 5 0
BBX 5 10 0 -2
BITMAP
30
30
30
30
38
F8
30
30
30
30
ENDCHAR
STARTCHAR char9547
ENCODING 9547
SWIDTH 436 0
DWIDTH 5 0
BBX 5 10 0 -2
BITMAP
30
30
30
30
F8
F8
30
30
30
30
ENDCHAR
STARTCHAR char9548
ENCODING 9548
SWIDTH 436 0
DWIDTH 5 0
BBX 5 1 0 2
BITMAP
D8
ENDCHAR
STARTCHAR char9549
ENCODING 9549
SWIDTH 436 0
DWIDTH 5 0
BBX 5 2 0 2
BITMAP
D8
D8
ENDCHAR
STARTCHAR char9550
ENCODING 9550
SWIDTH 436 0
DWIDTH 5 0
BBX 3 10 0 -2
BITMAP
20
20
20
20
00
00
20
20
20
20
ENDCHAR
STARTCHAR char9551
ENCODING 9551
SWIDTH 436 0
DWIDTH 5 0
BBX 4 10 0 -2
BITMAP
30
30
30
30
00
00
30
30
30
30
ENDCHAR
STARTCHAR char9552
ENCODING 9552
SWIDTH 436 0
DWIDTH 5 0
BBX 5 3 0 1
BITMAP
F8
00
F8
ENDCHAR
STARTCHAR char9553
ENCODING 9553
SWIDTH 436 0
DWIDTH 5 0
BBX 3 10 1 -2
BITMAP
A0
A0
A0
A0
A0
A0
A0
A0
A0
A0
ENDCHAR
STARTCHAR char9554
ENCODING 9554
SWIDTH 436 0
DWIDTH 5 0
BBX 3 6 2 -2
BITMAP
E0
80
E0
80
80
80
ENDCHAR
STARTCHAR char9555
ENCODING 9555
SWIDTH 436 0
DWIDTH 5 0
BBX 4 5 1 -2
BITMAP
F0
A0
A0
A0
A0
ENDCHAR
STARTCHAR char9556
ENCODING 9556
SWIDTH 436 0
DWIDTH 5 0
BBX 4 6 1 -2
BITMAP
F0
80
B0
A0
A0
A0
ENDCHAR
STARTCHAR char9557
ENCODING 9557
SWIDTH 436 0
DWIDTH 5 0
BBX 3 6 0 -2
BITMAP
E0
20
E0
20
20
20
ENDCHAR
STARTCHAR char9558
ENCODING 9558
SWIDTH 436 0
DWIDTH 5 0
BBX 4 5 0 -2
BITMAP
F0
50
50
50
50
ENDCHAR
STARTCHAR char9559
ENCODING 9559
SWIDTH 436 0
DWIDTH 5 0
BBX 4 6 0 -2
BITMAP
F0
10
D0
50
50
50
ENDCHAR
STARTCHAR char9560
ENCODING 9560
SWIDTH 436 0
DWIDTH 5 0
BBX 3 7 2 1
BITMAP
80
80
80
80
E0
80
E0
ENDCHAR
STARTCHAR char9561
ENCODING 9561
SWIDTH 436 0
DWIDTH 5 0
BBX 4 6 1 2
BITMAP
A0
A0
A0
A0
A0
F0
ENDCHAR
STARTCHAR char9562
ENCODING 9562
SWIDTH 436 0
DWIDTH 5 0
BBX 4 7 1 1
BITMAP
A0
A0
A0
A0
B0
80
F0
ENDCHAR
STARTCHAR char9563
ENCODING 9563
SWIDTH 436 0
DWIDTH 5 0
BBX 3 7 0 1
BITMAP
20
20
20
20
E0
20
E0
ENDCHAR
STARTCHAR char9564
ENCODING 9564
SWIDTH 436 0
DWIDTH 5 0
BBX 4 6 0 2
BITMAP
50
50
50
50
50
F0
ENDCHAR
STARTCHAR char9565
ENCODING 9565
SWIDTH 436 0
DWIDTH 5 0
BBX 4 7 0 1
BITMAP
50
50
50
50
D0
10
F0
ENDCHAR
STARTCHAR char9566
ENCODING 9566
SWIDTH 436 0
DWIDTH 5 0
BBX 3 10 2 -2
BITMAP
80
80
80
80
E0
80
E0
80
80
80
ENDCHAR
STARTCHAR char9567
ENCODING 9567
SWIDTH 436 0
DWIDTH 5 0
BBX 4 10 1 -2
BITMAP
A0
A0
A0
A0
A0
B0
A0
A0
A0
A0
ENDCHAR
STARTCHAR char9568
ENCODING 9568
SWIDTH 436 0
DWIDTH 5 0
BBX 4 10 1 -2
BITMAP
A0
A0
A0
A0
B0
80
B0
A0
A0
A0
ENDCHAR
STARTCHAR char9569
ENCODING 9569
SWIDTH 436 0
DWIDTH 5 0
BBX 3 10 0 -2
BITMAP
20
20
20
20
E0
20
E0
20
20
20
ENDCHAR
STARTCHAR char9570
ENCODING 9570
SWIDTH 436 0
DWIDTH 5 0
BBX 4 10 0 -2
BITMAP
50
50
50
50
50
D0
50
50
50
50
ENDCHAR
STARTCHAR char9571
ENCODING 9571
SWIDTH 436 0
DWIDTH 5 0
BBX 4 10 0 -2
BITMAP
50
50
50
50
D0
10
D0
50
50
50
ENDCHAR
STARTCHAR char9572
ENCODING 9572
SWIDTH 436 0
DWIDTH 5 0
BBX 5 6 0 -2
BITMAP
F8
00
F8
20
20
20
ENDCHAR
STARTCHAR char9573
ENCODING 9573
SWIDTH 436 0
DWIDTH 5 0
BBX 5 5 0 -2
BITMAP
F8
50
50
50
50
ENDCHAR
STARTCHAR char9574
ENCODING 9574
SWIDTH 436 0
DWIDTH 5 0
BBX 5 6 0 -2
BITMAP
F8
00
D8
50
50
50
ENDCHAR
STARTCHAR char9575
ENCODING 9575
SWIDTH 436 0
DWIDTH 5 0
BBX 5 7 0 1
BITMAP
20
20
20
20
F8
00
F8
ENDCHAR
STARTCHAR char9576
ENCODING 9576
SWIDTH 436 0
DWIDTH 5 0
BBX 5 6 0 2
BITMAP
50
50
50
50
50
F8
ENDCHAR
STARTCHAR char9577
ENCODING 9577
SWIDTH 436 0
DWIDTH 5 0
BBX 5 7 0 1
BITMAP
50
50
50
50
D8
00
F8
ENDCHAR
STARTCHAR char9578
ENCODING 9578
SWIDTH 436 0
DWIDTH 5 0
BBX 5 10 0 -2
BITMAP
20
20
20
20
F8
20
F8
20
20
20
ENDCHAR
STARTCHAR char9579
ENCODING 9579
SWIDTH 436 0
DWIDTH 5 0
BBX 5 10 0 -2
BITMAP
50
50
50
50
50
F8
50
50
50
50
ENDCHAR
STARTCHAR char9580
ENCODING 9580
SWIDTH 436 0
DWIDTH 5 0
BBX 5 10 0 -2
BITMAP
50
50
50
50
D8
00
D8
50
50
50
ENDCHAR
STARTCHAR char9581
ENCODING 9581
SWIDTH 436 0
DWIDTH 5 0
BBX 3 5 2 -2
BITMAP
20
40
80
80
80
ENDCHAR
STARTCHAR char9582
ENCODING 9582
SWIDTH 436 0
DWIDTH 5 0
BBX 3 5 0 -2
BITMAP
80
40
20
20
20
ENDCHAR
STARTCHAR char9583
ENCODING 9583
SWIDTH 436 0
DWIDTH 5 0
BBX 3 6 0 2
BITMAP
20
20
20
20
40
80
ENDCHAR
STARTCHAR char9584
ENCODING 9584
SWIDTH 436 0
DWIDTH 5 0
BBX 3 6 2 2
BITMAP
80
80
80
80
40
20
ENDCHAR
STARTCHAR char9585
ENCODING 9585
SWIDTH 436 0
DWIDTH 5 0
BBX 5 10 0 -2
BITMAP
08
08
10
10
20
20
40
40
80
80
ENDCHAR
STARTCHAR char9586
ENCODING 9586
SWIDTH 436 0
DWIDTH 5 0
BBX 5 10 0 -2
BITMAP
80
80
40
40
20
20
10
10
08
08
ENDCHAR
STARTCHAR char9587
ENCODING 9587
SWIDTH 436 0
DWIDTH 5 0
BBX 5 10 0 -2
BITMAP
88
88
50
50
20
20
50
50
88
88
ENDCHAR
STARTCHAR char9588
ENCODING 9588
SWIDTH 436 0
DWIDTH 5 0
BBX 3 1 0 2
BITMAP
E0
ENDCHAR
STARTCHAR char9589
ENCODING 9589
SWIDTH 436 0
DWIDTH 5 0
BBX 1 6 2 2
BITMAP
80
80
80
80
80
80
ENDCHAR
STARTCHAR char9590
ENCODING 9590
SWIDTH 436 0
DWIDTH 5 0
BBX 3 1 2 2
BITMAP
E0
ENDCHAR
STARTCHAR char9591
ENCODING 9591
SWIDTH 436 0
DWIDTH 5 0
BBX 1 5 2 -2
BITMAP
80
80
80
80
80
ENDCHAR
STARTCHAR char9592
ENCODING 9592
SWIDTH 436 0
DWIDTH 5 0
BBX 3 2 0 2
BITMAP
E0
E0
ENDCHAR
STARTCHAR char9593
ENCODING 9593
SWIDTH 436 0
DWIDTH 5 0
BBX 2 6 2 2
BITMAP
C0
C0
C0
C0
C0
C0
ENDCHAR
STARTCHAR char9594
ENCODING 9594
SWIDTH 436 0
DWIDTH 5 0
BBX 3 2 2 2
BITMAP
E0
E0
ENDCHAR
STARTCHAR char9595
ENCODING 9595
SWIDTH 436 0
DWIDTH 5 0
BBX 2 5 2 -2
BITMAP
C0
C0
C0
C0
C0
ENDCHAR
STARTCHAR char9596
ENCODING 9596
SWIDTH 436 0
DWIDTH 5 0
BBX 5 2 0 2
BITMAP
38
F8
ENDCHAR
STARTCHAR char9597
ENCODING 9597
SWIDTH 436 0
DWIDTH 5 0
BBX 4 10 0 -2
BITMAP
20
20
20
20
30
30
30
30
30
30
ENDCHAR
STARTCHAR char9598
ENCODING 9598
SWIDTH 436 0
DWIDTH 5 0
BBX 5 2 0 2
BITMAP
E0
F8
ENDCHAR
STARTCHAR char9599
ENCODING 9599
SWIDTH 436 0
DWIDTH 5 0
BBX 4 10 0 -2
BITMAP
30
30
30
30
30
30
20
20
20
20
ENDCHAR
STARTCHAR char9600
ENCODING 9600
SWIDTH 436 0
DWIDTH 5 0
BBX 5 5 0 3
BITMAP
F8
F8
F8
F8
F8
ENDCHAR
STARTCHAR char9601
ENCODING 9601
SWIDTH 436 0
DWIDTH 5 0
BBX 5 2 0 -2
BITMAP
F8
F8
ENDCHAR
STARTCHAR char9602
ENCODING 9602
SWIDTH 436 0
DWIDTH 5 0
BBX 5 3 0 -2
BITMAP
F8
F8
F8
ENDCHAR
STARTCHAR char9603
ENCODING 9603
SWIDTH 436 0
DWIDTH 5 0
BBX 5 4 0 -2
BITMAP
F8
F8
F8
F8
ENDCHAR
STARTCHAR char9604
ENCODING 9604
SWIDTH 436 0
DWIDTH 5 0
BBX 5 5 0 -2
BITMAP
F8
F8
F8
F8
F8
ENDCHAR
STARTCHAR char9605
ENCODING 9605
SWIDTH 436 0
DWIDTH 5 0
BBX 5 7 0 -2
BITMAP
F8
F8
F8
F8
F8
F8
F8
ENDCHAR
STARTCHAR char9606
ENCODING 9606
SWIDTH 436 0
DWIDTH 5 0
BBX 5 8 0 -2
BITMAP
F8
F8
F8
F8
F8
F8
F8
F8
ENDCHAR
STARTCHAR char9607
ENCODING 9607
SWIDTH 436 0
DWIDTH 5 0
BBX 5 9 0 -2
BITMAP
F8
F8
F8
F8
F8
F8
F8
F8
F8
ENDCHAR
STARTCHAR char9608
ENCODING 9608
SWIDTH 436 0
DWIDTH 5 0
BBX 5 10 0 -2
BITMAP
F8
F8
F8
F8
F8
F8
F8
F8
F8
F8
ENDCHAR
STARTCHAR char9609
ENCODING 9609
SWIDTH 436 0
DWIDTH 5 0
BBX 4 10 0 -2
BITMAP
F0
F0
F0
F0
F0
F0
F0
F0
F0
F0
ENDCHAR
STARTCHAR char9610
ENCODING 9610
SWIDTH 436 0
DWIDTH 5 0
BBX 4 10 0 -2
BITMAP
F0
F0
F0
F0
F0
F0
F0
F0
F0
F0
ENDCHAR
STARTCHAR char9611
ENCODING 9611
SWIDTH 436 0
DWIDTH 5 0
BBX 3 10 0 -2
BITMAP
E0
E0
E0
E0
E0
E0
E0
E0
E0
E0
ENDCHAR
STARTCHAR char9612
ENCODING 9612
SWIDTH 436 0
DWIDTH 5 0
BBX 3 10 0 -2
BITMAP
E0
E0
E0
E0
E0
E0
E0
E0
E0
E0
ENDCHAR
STARTCHAR char9613
ENCODING 9613
SWIDTH 436 0
DWIDTH 5 0
BBX 2 10 0 -2
BITMAP
C0
C0
C0
C0
C0
C0
C0
C0
C0
C0
ENDCHAR
STARTCHAR char9614
ENCODING 9614
SWIDTH 436 0
DWIDTH 5 0
BBX 2 10 0 -2
BITMAP
C0
C0
C0
C0
C0
C0
C0
C0
C0
C0
ENDCHAR
STARTCHAR char9615
ENCODING 9615
SWIDTH 436 0
DWIDTH 5 0
BBX 1 10 0 -2
BITMAP
80
80
80
80
80
80
80
80
80
80
ENDCHAR
STARTCHAR char9616
ENCODING 9616
SWIDTH 436 0
DWIDTH 5 0
BBX 5 10 0 -2
BITMAP
38
38
38
38
38
38
38
38
38
38
ENDCHAR
STARTCHAR char9617
ENCODING 9617
SWIDTH 436 0
DWIDTH 5 0
BBX 5 9 0 -1
BITMAP
A8
00
A8
00
A8
00
A8
00
A8
ENDCHAR
STARTCHAR char9617
ENCODING 9618
SWIDTH 436 0
DWIDTH 5 0
BBX 5 10 0 -2
BITMAP
A8
50
A8
50
A8
50
A8
50
A8
50
ENDCHAR
STARTCHAR char9617
ENCODING 9619
SWIDTH 436 0
DWIDTH 5 0
BBX 5 10 0 -2
BITMAP
F8
A8
F8
A8
F8
A8
F8
A8
F8
A8
ENDCHAR
STARTCHAR char9620
ENCODING 9620
SWIDTH 436 0
DWIDTH 5 0
BBX 5 2 0 6
BITMAP
F8
F8
ENDCHAR
STARTCHAR char9621
ENCODING 9621
SWIDTH 436 0
DWIDTH 5 0
BBX 5 10 0 -2
BITMAP
08
08
08
08
08
08
08
08
08
08
ENDCHAR
STARTCHAR char9622
ENCODING 9622
SWIDTH 436 0
DWIDTH 5 0
BBX 3 5 0 -2
BITMAP
E0
E0
E0
E0
E0
ENDCHAR
STARTCHAR char9623
ENCODING 9623
SWIDTH 436 0
DWIDTH 5 0
BBX 5 5 0 -2
BITMAP
38
38
38
38
38
ENDCHAR
STARTCHAR char9624
ENCODING 9624
SWIDTH 436 0
DWIDTH 5 0
BBX 3 5 0 3
BITMAP
E0
E0
E0
E0
E0
ENDCHAR
STARTCHAR char9625
ENCODING 9625
SWIDTH 436 0
DWIDTH 5 0
BBX 5 10 0 -2
BITMAP
E0
E0
E0
E0
E0
F8
F8
F8
F8
F8
ENDCHAR
STARTCHAR char9626
ENCODING 9626
SWIDTH 436 0
DWIDTH 5 0
BBX 5 10 0 -2
BITMAP
E0
E0
E0
E0
E0
38
38
38
38
38
ENDCHAR
STARTCHAR char9627
ENCODING 9627
SWIDTH 436 0
DWIDTH 5 0
BBX 5 10 0 -2
BITMAP
F8
F8
F8
F8
F8
E0
E0
E0
E0
E0
ENDCHAR
STARTCHAR char9628
ENCODING 9628
SWIDTH 436 0
DWIDTH 5 0
BBX 5 10 0 -2
BITMAP
F8
F8
F8
F8
F8
38
38
38
38
38
ENDCHAR
STARTCHAR char9629
ENCODING 9629
SWIDTH 436 0
DWIDTH 5 0
BBX 3 5 2 3
BITMAP
E0
E0
E0
E0
E0
ENDCHAR
STARTCHAR char9630
ENCODING 9630
SWIDTH 436 0
DWIDTH 5 0
BBX 5 10 0 -2
BITMAP
38
38
38
38
38
E0
E0
E0
E0
E0
ENDCHAR
STARTCHAR char9631
ENCODING 9631
SWIDTH 436 0
DWIDTH 5 0
BBX 5 10 0 -2
BITMAP
38
38
38
38
38
F8
F8
F8
F8
F8
ENDCHAR
STARTCHAR char9833
ENCODING 9833
SWIDTH 436 0
DWIDTH 5 0
BBX 2 5 2 0
BITMAP
40
40
40
C0
C0
ENDCHAR
STARTCHAR char9834
ENCODING 9834
SWIDTH 436 0
DWIDTH 5 0
BBX 4 5 1 0
BITMAP
60
50
40
C0
C0
ENDCHAR
STARTCHAR char9835
ENCODING 9835
SWIDTH 436 0
DWIDTH 5 0
BBX 5 5 0 0
BITMAP
78
48
48
D8
D8
ENDCHAR
STARTCHAR char9836
ENCODING 9836
SWIDTH 436 0
DWIDTH 5 0
BBX 5 6 0 0
BITMAP
78
48
78
48
D8
D8
ENDCHAR
STARTCHAR char9837
ENCODING 9837
SWIDTH 436 0
DWIDTH 5 0
BBX 4 6 1 0
BITMAP
80
A0
D0
90
A0
C0
ENDCHAR
STARTCHAR char9838
ENCODING 9838
SWIDTH 436 0
DWIDTH 5 0
BBX 4 6 1 0
BITMAP
80
B0
D0
B0
D0
10
ENDCHAR
STARTCHAR char9839
ENCODING 9839
SWIDTH 436 0
DWIDTH 5 0
BBX 5 6 0 0
BITMAP
10
58
F0
78
D0
40
ENDCHAR
STARTCHAR char10521
ENCODING 10521
SWIDTH 436 0
DWIDTH 5 0
BBX 5 5 0 1
BITMAP
08
10
E0
10
08
ENDCHAR
STARTCHAR char10522
ENCODING 10522
SWIDTH 436 0
DWIDTH 5 0
BBX 5 5 0 1
BITMAP
80
40
38
40
80
ENDCHAR
STARTCHAR char49824
ENCODING 49824
SWIDTH 436 0
DWIDTH 5 0
BBX 0 0 0 0
BITMAP
ENDCHAR
STARTCHAR char57504
ENCODING 57504
SWIDTH 436 0
DWIDTH 5 0
BBX 5 6 0 0
BITMAP
90
B8
90
E0
80
80
ENDCHAR
STARTCHAR char57505
ENCODING 57505
SWIDTH 436 0
DWIDTH 5 0
BBX 5 6 0 0
BITMAP
20
50
50
F8
D8
70
ENDCHAR
STARTCHAR char57506
ENCODING 57506
SWIDTH 436 0
DWIDTH 5 0
BBX 4 9 1 -1
BITMAP
80
80
80
F0
00
90
D0
B0
90
ENDCHAR
STARTCHAR char57520
ENCODING 57520
SWIDTH 436 0
DWIDTH 5 0
BBX 5 10 0 -2
BITMAP
80
C0
E0
F0
F8
F8
F0
E0
C0
80
ENDCHAR
STARTCHAR char57521
ENCODING 57521
SWIDTH 436 0
DWIDTH 5 0
BBX 5 10 0 -2
BITMAP
80
40
20
10
08
08
10
20
40
80
ENDCHAR
STARTCHAR char57522
ENCODING 57522
SWIDTH 436 0
DWIDTH 5 0
BBX 5 10 0 -2
BITMAP
08
18
38
78
F8
F8
78
38
18
08
ENDCHAR
STARTCHAR char57523
ENCODING 57523
SWIDTH 436 0
DWIDTH 5 0
BBX 5 10 0 -2
BITMAP
08
10
20
40
80
80
40
20
10
08
ENDCHAR
STARTCHAR char65533
ENCODING 65533
SWIDTH 436 0
DWIDTH 5 0
BBX 4 6 1 0
BITMAP
F0
90
90
90
90
F0
ENDCHAR
ENDFONT
